<?xml version="1.0" standalone="no"?>
<!DOCTYPE svg PUBLIC "-//W3C//DTD SVG 20010904//EN"
 "http://www.w3.org/TR/2001/REC-SVG-20010904/DTD/svg10.dtd">
<svg version="1.0" xmlns="http://www.w3.org/2000/svg"
 width="512.000000pt" height="512.000000pt" viewBox="0 0 512.000000 512.000000"
 preserveAspectRatio="xMidYMid meet">
<metadata>
Created by potrace 1.16, written by Peter Selinger 2001-2019
</metadata>
<g transform="translate(0.000000,512.000000) scale(0.100000,-0.100000)"
fill="#000000" stroke="none">
<path d="M3655 5106 c-16 -8 -578 -562 -1247 -1232 -1092 -1094 -1217 -1223
-1224 -1257 -11 -63 1 -133 29 -174 15 -21 563 -574 1219 -1229 973 -972 1200
-1194 1232 -1204 57 -18 147 -9 190 21 73 49 105 163 71 247 -11 26 -344 366
-1138 1160 l-1122 1122 1122 1123 c616 617 1129 1137 1138 1156 26 51 17 147
-17 199 -48 72 -171 105 -253 68z"/>
</g>
</svg>
